# xmcd CD database file
#
# Track frame offsets:
#	150
#	17093
#	32849
#	52502
#
# Disc length: 901 seconds
#
# Revision: 0
# Processed by: cddbd v1.5.2PL0 Copyright (c) Steve Scherf et al.
# Submitted via: CDex 1.51
#
DISCID=22038304
DTITLE=White and Blue - First Maquette
DYEAR=2005
DGENRE=Blues
TTITLE0=Certaines Filles (W&B)
TTITLE1=Got You On My Mind (Joe Turner)
TTITLE2=Délire Provençal (W&B)
TTITLE3=The Wind Cries Mary (Jimmy Hendrix)
EXTD=YEAR: 2005
EXTT0=
EXTT1=
EXTT2=
EXTT3=
PLAYORDER=
